<svg 
 xmlns="http://www.w3.org/2000/svg"
 xmlns:xlink="http://www.w3.org/1999/xlink"
 width="26.219in" height="20.289in">
<path fill-rule="evenodd"  fill="rgb(255, 255, 255)"
 d="M249.000,1448.000 L233.000,1448.000 L233.000,275.000 L249.000,275.000 L249.000,1448.000 Z"/>
<path fill-rule="evenodd"  fill="rgb(255, 255, 255)"
 d="M482.000,1448.000 L466.000,1448.000 L466.000,275.000 L482.000,275.000 L482.000,1448.000 Z"/>
<path fill-rule="evenodd"  fill="rgb(255, 255, 255)"
 d="M715.000,1448.000 L699.000,1448.000 L699.000,275.000 L715.000,275.000 L715.000,1448.000 Z"/>
<path fill-rule="evenodd"  fill="rgb(255, 255, 255)"
 d="M948.000,1445.000 L932.000,1445.000 L932.000,272.000 L948.000,272.000 L948.000,1445.000 Z"/>
<path fill-rule="evenodd"  fill="rgb(255, 255, 255)"
 d="M1181.000,1453.000 L1165.000,1453.000 L1165.000,280.000 L1181.000,280.000 L1181.000,1453.000 Z"/>
<path fill-rule="evenodd"  fill="rgb(255, 255, 255)"
 d="M1414.000,1453.000 L1398.000,1453.000 L1398.000,280.000 L1414.000,280.000 L1414.000,1453.000 Z"/>
<path fill-rule="evenodd"  fill="rgb(255, 255, 255)"
 d="M1647.000,1453.000 L1631.000,1453.000 L1631.000,280.000 L1647.000,280.000 L1647.000,1453.000 Z"/>
<path fill-rule="evenodd"  fill="rgb(255, 255, 255)"
 d="M16.000,1453.000 L-0.000,1453.000 L-0.000,-0.000 L16.000,-0.000 L16.000,1453.000 Z"/>
<path fill-rule="evenodd"  fill="rgb(255, 255, 255)"
 d="M1880.000,1453.000 L1864.000,1453.000 L1864.000,-0.000 L1880.000,-0.000 L1880.000,1453.000 Z"/>
<path fill-rule="evenodd"  stroke="rgb(255, 255, 255)" stroke-width="0px" stroke-linecap="butt" stroke-linejoin="miter" fill="rgb(255, 255, 255)"
 d="M0.000,16.000 L0.000,-0.000 L1879.000,-0.000 L1879.000,16.000 L0.000,16.000 Z"/>
<path fill-rule="evenodd"  stroke="rgb(255, 255, 255)" stroke-width="0px" stroke-linecap="butt" stroke-linejoin="miter" fill="rgb(255, 255, 255)"
 d="M0.000,283.000 L0.000,267.000 L1879.000,267.000 L1879.000,283.000 L0.000,283.000 Z"/>
<path fill-rule="evenodd"  stroke="rgb(255, 255, 255)" stroke-width="0px" stroke-linecap="butt" stroke-linejoin="miter" fill="rgb(255, 255, 255)"
 d="M0.000,517.000 L0.000,501.000 L1879.000,501.000 L1879.000,517.000 L0.000,517.000 Z"/>
<path fill-rule="evenodd"  stroke="rgb(255, 255, 255)" stroke-width="0px" stroke-linecap="butt" stroke-linejoin="miter" fill="rgb(255, 255, 255)"
 d="M0.000,751.000 L0.000,735.000 L1879.000,735.000 L1879.000,751.000 L0.000,751.000 Z"/>
<path fill-rule="evenodd"  stroke="rgb(255, 255, 255)" stroke-width="0px" stroke-linecap="butt" stroke-linejoin="miter" fill="rgb(255, 255, 255)"
 d="M0.000,985.000 L0.000,969.000 L1879.000,969.000 L1879.000,985.000 L0.000,985.000 Z"/>
<path fill-rule="evenodd"  stroke="rgb(255, 255, 255)" stroke-width="0px" stroke-linecap="butt" stroke-linejoin="miter" fill="rgb(255, 255, 255)"
 d="M0.000,1219.000 L0.000,1203.000 L1879.000,1203.000 L1879.000,1219.000 L0.000,1219.000 Z"/>
<path fill-rule="evenodd"  stroke="rgb(255, 255, 255)" stroke-width="0px" stroke-linecap="butt" stroke-linejoin="miter" fill="rgb(255, 255, 255)"
 d="M0.000,1453.000 L0.000,1437.000 L1879.000,1437.000 L1879.000,1453.000 L0.000,1453.000 Z"/>
<path fill-rule="evenodd"  stroke="rgb(255, 255, 255)" stroke-width="15.6px" stroke-linecap="butt" stroke-linejoin="miter" fill="none"
 d="M241.000,41.000 C296.228,41.000 341.000,85.772 341.000,141.000 C341.000,196.228 296.228,241.000 241.000,241.000 C185.772,241.000 141.000,196.228 141.000,141.000 C141.000,85.772 185.772,41.000 241.000,41.000 Z"/>
<path fill-rule="evenodd"  stroke="rgb(255, 255, 255)" stroke-width="15.6px" stroke-linecap="butt" stroke-linejoin="miter" fill="none"
 d="M1639.000,41.000 C1694.228,41.000 1739.000,85.772 1739.000,141.000 C1739.000,196.228 1694.228,241.000 1639.000,241.000 C1583.772,241.000 1539.000,196.228 1539.000,141.000 C1539.000,85.772 1583.772,41.000 1639.000,41.000 Z"/>
</svg>