<svg 
 xmlns="http://www.w3.org/2000/svg"
 xmlns:xlink="http://www.w3.org/1999/xlink"
 width="26.219in" height="20.289in">
<path fill-rule="evenodd"  stroke="rgb(255, 255, 255)" stroke-width="15.6px" stroke-linecap="butt" stroke-linejoin="miter" fill="none"
 d="M456.000,1278.000 L440.000,1278.000 L440.000,649.000 L456.000,649.000 L456.000,1278.000 Z"/>
<path fill-rule="evenodd"  stroke="rgb(255, 255, 255)" stroke-width="15.6px" stroke-linecap="butt" stroke-linejoin="miter" fill="none"
 d="M708.000,1278.000 L692.000,1278.000 L692.000,443.000 L708.000,443.000 L708.000,1278.000 Z"/>
<path fill-rule="evenodd"  stroke="rgb(255, 255, 255)" stroke-width="15.6px" stroke-linecap="butt" stroke-linejoin="miter" fill="none"
 d="M445.000,665.000 L445.000,649.000 L697.000,649.000 L697.000,665.000 L445.000,665.000 Z"/>
<path fill-rule="evenodd"  stroke="rgb(255, 255, 255)" stroke-width="10px" stroke-linecap="butt" stroke-linejoin="miter" fill="none"
 d="M477.000,704.000 L532.000,704.000 L532.000,773.000 L477.000,773.000 L477.000,704.000 Z"/>
<path fill-rule="evenodd"  stroke="rgb(255, 255, 255)" stroke-width="10px" stroke-linecap="butt" stroke-linejoin="miter" fill="none"
 d="M545.000,704.000 L600.000,704.000 L600.000,773.000 L545.000,773.000 L545.000,704.000 Z"/>
<path fill-rule="evenodd"  stroke="rgb(255, 255, 255)" stroke-width="10px" stroke-linecap="butt" stroke-linejoin="miter" fill="none"
 d="M616.000,704.000 L671.000,704.000 L671.000,773.000 L616.000,773.000 L616.000,704.000 Z"/>
<path fill-rule="evenodd"  stroke="rgb(255, 255, 255)" stroke-width="10px" stroke-linecap="butt" stroke-linejoin="miter" fill="none"
 d="M479.000,794.000 L534.000,794.000 L534.000,863.000 L479.000,863.000 L479.000,794.000 Z"/>
<path fill-rule="evenodd"  stroke="rgb(255, 255, 255)" stroke-width="10px" stroke-linecap="butt" stroke-linejoin="miter" fill="none"
 d="M547.000,794.000 L602.000,794.000 L602.000,863.000 L547.000,863.000 L547.000,794.000 Z"/>
<path fill-rule="evenodd"  stroke="rgb(255, 255, 255)" stroke-width="10px" stroke-linecap="butt" stroke-linejoin="miter" fill="none"
 d="M618.000,794.000 L673.000,794.000 L673.000,863.000 L618.000,863.000 L618.000,794.000 Z"/>
<path fill-rule="evenodd"  stroke="rgb(255, 255, 255)" stroke-width="10px" stroke-linecap="butt" stroke-linejoin="miter" fill="none"
 d="M479.000,884.000 L534.000,884.000 L534.000,953.000 L479.000,953.000 L479.000,884.000 Z"/>
<path fill-rule="evenodd"  stroke="rgb(255, 255, 255)" stroke-width="10px" stroke-linecap="butt" stroke-linejoin="miter" fill="none"
 d="M547.000,884.000 L602.000,884.000 L602.000,953.000 L547.000,953.000 L547.000,884.000 Z"/>
<path fill-rule="evenodd"  stroke="rgb(255, 255, 255)" stroke-width="10px" stroke-linecap="butt" stroke-linejoin="miter" fill="none"
 d="M618.000,884.000 L673.000,884.000 L673.000,953.000 L618.000,953.000 L618.000,884.000 Z"/>
<path fill-rule="evenodd"  stroke="rgb(255, 255, 255)" stroke-width="10px" stroke-linecap="butt" stroke-linejoin="miter" fill="none"
 d="M479.000,974.000 L534.000,974.000 L534.000,1043.000 L479.000,1043.000 L479.000,974.000 Z"/>
<path fill-rule="evenodd"  stroke="rgb(255, 255, 255)" stroke-width="10px" stroke-linecap="butt" stroke-linejoin="miter" fill="none"
 d="M547.000,974.000 L602.000,974.000 L602.000,1043.000 L547.000,1043.000 L547.000,974.000 Z"/>
<path fill-rule="evenodd"  stroke="rgb(255, 255, 255)" stroke-width="10px" stroke-linecap="butt" stroke-linejoin="miter" fill="none"
 d="M618.000,974.000 L673.000,974.000 L673.000,1043.000 L618.000,1043.000 L618.000,974.000 Z"/>
<path fill-rule="evenodd"  stroke="rgb(255, 255, 255)" stroke-width="10px" stroke-linecap="butt" stroke-linejoin="miter" fill="none"
 d="M479.000,1064.000 L534.000,1064.000 L534.000,1133.000 L479.000,1133.000 L479.000,1064.000 Z"/>
<path fill-rule="evenodd"  stroke="rgb(255, 255, 255)" stroke-width="10px" stroke-linecap="butt" stroke-linejoin="miter" fill="none"
 d="M547.000,1064.000 L602.000,1064.000 L602.000,1133.000 L547.000,1133.000 L547.000,1064.000 Z"/>
<path fill-rule="evenodd"  stroke="rgb(255, 255, 255)" stroke-width="10px" stroke-linecap="butt" stroke-linejoin="miter" fill="none"
 d="M618.000,1064.000 L673.000,1064.000 L673.000,1133.000 L618.000,1133.000 L618.000,1064.000 Z"/>
<path fill-rule="evenodd"  stroke="rgb(255, 255, 255)" stroke-width="10px" stroke-linecap="butt" stroke-linejoin="miter" fill="none"
 d="M479.000,1154.000 L534.000,1154.000 L534.000,1223.000 L479.000,1223.000 L479.000,1154.000 Z"/>
<path fill-rule="evenodd"  stroke="rgb(255, 255, 255)" stroke-width="10px" stroke-linecap="butt" stroke-linejoin="miter" fill="none"
 d="M547.000,1154.000 L602.000,1154.000 L602.000,1223.000 L547.000,1223.000 L547.000,1154.000 Z"/>
<path fill-rule="evenodd"  stroke="rgb(255, 255, 255)" stroke-width="10px" stroke-linecap="butt" stroke-linejoin="miter" fill="none"
 d="M618.000,1154.000 L673.000,1154.000 L673.000,1223.000 L618.000,1223.000 L618.000,1154.000 Z"/>
<path fill-rule="evenodd"  stroke="rgb(255, 255, 255)" stroke-width="15.6px" stroke-linecap="butt" stroke-linejoin="miter" fill="none"
 d="M1188.000,1278.000 L1172.000,1278.000 L1172.000,443.000 L1188.000,443.000 L1188.000,1278.000 Z"/>
<path fill-rule="evenodd"  stroke="rgb(255, 255, 255)" stroke-width="15.6px" stroke-linecap="butt" stroke-linejoin="miter" fill="none"
 d="M1440.000,1278.000 L1424.000,1278.000 L1424.000,649.000 L1440.000,649.000 L1440.000,1278.000 Z"/>
<path fill-rule="evenodd"  stroke="rgb(255, 255, 255)" stroke-width="15.6px" stroke-linecap="butt" stroke-linejoin="miter" fill="none"
 d="M1183.000,665.000 L1183.000,649.000 L1435.000,649.000 L1435.000,665.000 L1183.000,665.000 Z"/>
<path fill-rule="evenodd"  stroke="rgb(255, 255, 255)" stroke-width="10px" stroke-linecap="butt" stroke-linejoin="miter" fill="none"
 d="M1208.000,704.000 L1263.000,704.000 L1263.000,773.000 L1208.000,773.000 L1208.000,704.000 Z"/>
<path fill-rule="evenodd"  stroke="rgb(255, 255, 255)" stroke-width="10px" stroke-linecap="butt" stroke-linejoin="miter" fill="none"
 d="M1276.000,704.000 L1331.000,704.000 L1331.000,773.000 L1276.000,773.000 L1276.000,704.000 Z"/>
<path fill-rule="evenodd"  stroke="rgb(255, 255, 255)" stroke-width="10px" stroke-linecap="butt" stroke-linejoin="miter" fill="none"
 d="M1347.000,704.000 L1402.000,704.000 L1402.000,773.000 L1347.000,773.000 L1347.000,704.000 Z"/>
<path fill-rule="evenodd"  stroke="rgb(255, 255, 255)" stroke-width="10px" stroke-linecap="butt" stroke-linejoin="miter" fill="none"
 d="M1210.000,794.000 L1265.000,794.000 L1265.000,863.000 L1210.000,863.000 L1210.000,794.000 Z"/>
<path fill-rule="evenodd"  stroke="rgb(255, 255, 255)" stroke-width="10px" stroke-linecap="butt" stroke-linejoin="miter" fill="none"
 d="M1278.000,794.000 L1333.000,794.000 L1333.000,863.000 L1278.000,863.000 L1278.000,794.000 Z"/>
<path fill-rule="evenodd"  stroke="rgb(255, 255, 255)" stroke-width="10px" stroke-linecap="butt" stroke-linejoin="miter" fill="none"
 d="M1349.000,794.000 L1404.000,794.000 L1404.000,863.000 L1349.000,863.000 L1349.000,794.000 Z"/>
<path fill-rule="evenodd"  stroke="rgb(255, 255, 255)" stroke-width="10px" stroke-linecap="butt" stroke-linejoin="miter" fill="none"
 d="M1210.000,884.000 L1265.000,884.000 L1265.000,953.000 L1210.000,953.000 L1210.000,884.000 Z"/>
<path fill-rule="evenodd"  stroke="rgb(255, 255, 255)" stroke-width="10px" stroke-linecap="butt" stroke-linejoin="miter" fill="none"
 d="M1278.000,884.000 L1333.000,884.000 L1333.000,953.000 L1278.000,953.000 L1278.000,884.000 Z"/>
<path fill-rule="evenodd"  stroke="rgb(255, 255, 255)" stroke-width="10px" stroke-linecap="butt" stroke-linejoin="miter" fill="none"
 d="M1349.000,884.000 L1404.000,884.000 L1404.000,953.000 L1349.000,953.000 L1349.000,884.000 Z"/>
<path fill-rule="evenodd"  stroke="rgb(255, 255, 255)" stroke-width="10px" stroke-linecap="butt" stroke-linejoin="miter" fill="none"
 d="M1210.000,974.000 L1265.000,974.000 L1265.000,1043.000 L1210.000,1043.000 L1210.000,974.000 Z"/>
<path fill-rule="evenodd"  stroke="rgb(255, 255, 255)" stroke-width="10px" stroke-linecap="butt" stroke-linejoin="miter" fill="none"
 d="M1278.000,974.000 L1333.000,974.000 L1333.000,1043.000 L1278.000,1043.000 L1278.000,974.000 Z"/>
<path fill-rule="evenodd"  stroke="rgb(255, 255, 255)" stroke-width="10px" stroke-linecap="butt" stroke-linejoin="miter" fill="none"
 d="M1349.000,974.000 L1404.000,974.000 L1404.000,1043.000 L1349.000,1043.000 L1349.000,974.000 Z"/>
<path fill-rule="evenodd"  stroke="rgb(255, 255, 255)" stroke-width="10px" stroke-linecap="butt" stroke-linejoin="miter" fill="none"
 d="M1210.000,1064.000 L1265.000,1064.000 L1265.000,1133.000 L1210.000,1133.000 L1210.000,1064.000 Z"/>
<path fill-rule="evenodd"  stroke="rgb(255, 255, 255)" stroke-width="10px" stroke-linecap="butt" stroke-linejoin="miter" fill="none"
 d="M1278.000,1064.000 L1333.000,1064.000 L1333.000,1133.000 L1278.000,1133.000 L1278.000,1064.000 Z"/>
<path fill-rule="evenodd"  stroke="rgb(255, 255, 255)" stroke-width="10px" stroke-linecap="butt" stroke-linejoin="miter" fill="none"
 d="M1349.000,1064.000 L1404.000,1064.000 L1404.000,1133.000 L1349.000,1133.000 L1349.000,1064.000 Z"/>
<path fill-rule="evenodd"  stroke="rgb(255, 255, 255)" stroke-width="10px" stroke-linecap="butt" stroke-linejoin="miter" fill="none"
 d="M1210.000,1154.000 L1265.000,1154.000 L1265.000,1223.000 L1210.000,1223.000 L1210.000,1154.000 Z"/>
<path fill-rule="evenodd"  stroke="rgb(255, 255, 255)" stroke-width="10px" stroke-linecap="butt" stroke-linejoin="miter" fill="none"
 d="M1278.000,1154.000 L1333.000,1154.000 L1333.000,1223.000 L1278.000,1223.000 L1278.000,1154.000 Z"/>
<path fill-rule="evenodd"  stroke="rgb(255, 255, 255)" stroke-width="10px" stroke-linecap="butt" stroke-linejoin="miter" fill="none"
 d="M1349.000,1154.000 L1404.000,1154.000 L1404.000,1223.000 L1349.000,1223.000 L1349.000,1154.000 Z"/>
<path fill-rule="evenodd"  stroke="rgb(255, 255, 255)" stroke-width="10px" stroke-linecap="butt" stroke-linejoin="miter" fill="none"
 d="M1036.000,1155.000 L1091.000,1155.000 L1091.000,1224.000 L1036.000,1224.000 L1036.000,1155.000 Z"/>
<path fill-rule="evenodd"  stroke="rgb(255, 255, 255)" stroke-width="10px" stroke-linecap="butt" stroke-linejoin="miter" fill="none"
 d="M1107.000,1155.000 L1162.000,1155.000 L1162.000,1224.000 L1107.000,1224.000 L1107.000,1155.000 Z"/>
<path fill-rule="evenodd"  stroke="rgb(255, 255, 255)" stroke-width="10px" stroke-linecap="butt" stroke-linejoin="miter" fill="none"
 d="M1036.000,1064.000 L1091.000,1064.000 L1091.000,1133.000 L1036.000,1133.000 L1036.000,1064.000 Z"/>
<path fill-rule="evenodd"  stroke="rgb(255, 255, 255)" stroke-width="10px" stroke-linecap="butt" stroke-linejoin="miter" fill="none"
 d="M1107.000,1064.000 L1162.000,1064.000 L1162.000,1133.000 L1107.000,1133.000 L1107.000,1064.000 Z"/>
<path fill-rule="evenodd"  stroke="rgb(255, 255, 255)" stroke-width="10px" stroke-linecap="butt" stroke-linejoin="miter" fill="none"
 d="M1036.000,974.000 L1091.000,974.000 L1091.000,1043.000 L1036.000,1043.000 L1036.000,974.000 Z"/>
<path fill-rule="evenodd"  stroke="rgb(255, 255, 255)" stroke-width="10px" stroke-linecap="butt" stroke-linejoin="miter" fill="none"
 d="M1107.000,974.000 L1162.000,974.000 L1162.000,1043.000 L1107.000,1043.000 L1107.000,974.000 Z"/>
<path fill-rule="evenodd"  stroke="rgb(255, 255, 255)" stroke-width="10px" stroke-linecap="butt" stroke-linejoin="miter" fill="none"
 d="M1036.000,884.000 L1091.000,884.000 L1091.000,953.000 L1036.000,953.000 L1036.000,884.000 Z"/>
<path fill-rule="evenodd"  stroke="rgb(255, 255, 255)" stroke-width="10px" stroke-linecap="butt" stroke-linejoin="miter" fill="none"
 d="M1107.000,884.000 L1162.000,884.000 L1162.000,953.000 L1107.000,953.000 L1107.000,884.000 Z"/>
<path fill-rule="evenodd"  stroke="rgb(255, 255, 255)" stroke-width="10px" stroke-linecap="butt" stroke-linejoin="miter" fill="none"
 d="M1036.000,794.000 L1091.000,794.000 L1091.000,863.000 L1036.000,863.000 L1036.000,794.000 Z"/>
<path fill-rule="evenodd"  stroke="rgb(255, 255, 255)" stroke-width="10px" stroke-linecap="butt" stroke-linejoin="miter" fill="none"
 d="M1107.000,794.000 L1162.000,794.000 L1162.000,863.000 L1107.000,863.000 L1107.000,794.000 Z"/>
<path fill-rule="evenodd"  stroke="rgb(255, 255, 255)" stroke-width="10px" stroke-linecap="butt" stroke-linejoin="miter" fill="none"
 d="M1036.000,704.000 L1091.000,704.000 L1091.000,773.000 L1036.000,773.000 L1036.000,704.000 Z"/>
<path fill-rule="evenodd"  stroke="rgb(255, 255, 255)" stroke-width="10px" stroke-linecap="butt" stroke-linejoin="miter" fill="none"
 d="M1107.000,704.000 L1162.000,704.000 L1162.000,773.000 L1107.000,773.000 L1107.000,704.000 Z"/>
<path fill-rule="evenodd"  stroke="rgb(255, 255, 255)" stroke-width="10px" stroke-linecap="butt" stroke-linejoin="miter" fill="none"
 d="M1036.000,613.000 L1091.000,613.000 L1091.000,682.000 L1036.000,682.000 L1036.000,613.000 Z"/>
<path fill-rule="evenodd"  stroke="rgb(255, 255, 255)" stroke-width="10px" stroke-linecap="butt" stroke-linejoin="miter" fill="none"
 d="M1107.000,613.000 L1162.000,613.000 L1162.000,682.000 L1107.000,682.000 L1107.000,613.000 Z"/>
<path fill-rule="evenodd"  stroke="rgb(255, 255, 255)" stroke-width="10px" stroke-linecap="butt" stroke-linejoin="miter" fill="none"
 d="M727.000,1155.000 L782.000,1155.000 L782.000,1224.000 L727.000,1224.000 L727.000,1155.000 Z"/>
<path fill-rule="evenodd"  stroke="rgb(255, 255, 255)" stroke-width="10px" stroke-linecap="butt" stroke-linejoin="miter" fill="none"
 d="M798.000,1155.000 L853.000,1155.000 L853.000,1224.000 L798.000,1224.000 L798.000,1155.000 Z"/>
<path fill-rule="evenodd"  stroke="rgb(255, 255, 255)" stroke-width="10px" stroke-linecap="butt" stroke-linejoin="miter" fill="none"
 d="M727.000,1064.000 L782.000,1064.000 L782.000,1133.000 L727.000,1133.000 L727.000,1064.000 Z"/>
<path fill-rule="evenodd"  stroke="rgb(255, 255, 255)" stroke-width="10px" stroke-linecap="butt" stroke-linejoin="miter" fill="none"
 d="M798.000,1064.000 L853.000,1064.000 L853.000,1133.000 L798.000,1133.000 L798.000,1064.000 Z"/>
<path fill-rule="evenodd"  stroke="rgb(255, 255, 255)" stroke-width="10px" stroke-linecap="butt" stroke-linejoin="miter" fill="none"
 d="M727.000,974.000 L782.000,974.000 L782.000,1043.000 L727.000,1043.000 L727.000,974.000 Z"/>
<path fill-rule="evenodd"  stroke="rgb(255, 255, 255)" stroke-width="10px" stroke-linecap="butt" stroke-linejoin="miter" fill="none"
 d="M798.000,974.000 L853.000,974.000 L853.000,1043.000 L798.000,1043.000 L798.000,974.000 Z"/>
<path fill-rule="evenodd"  stroke="rgb(255, 255, 255)" stroke-width="10px" stroke-linecap="butt" stroke-linejoin="miter" fill="none"
 d="M727.000,884.000 L782.000,884.000 L782.000,953.000 L727.000,953.000 L727.000,884.000 Z"/>
<path fill-rule="evenodd"  stroke="rgb(255, 255, 255)" stroke-width="10px" stroke-linecap="butt" stroke-linejoin="miter" fill="none"
 d="M798.000,884.000 L853.000,884.000 L853.000,953.000 L798.000,953.000 L798.000,884.000 Z"/>
<path fill-rule="evenodd"  stroke="rgb(255, 255, 255)" stroke-width="10px" stroke-linecap="butt" stroke-linejoin="miter" fill="none"
 d="M727.000,794.000 L782.000,794.000 L782.000,863.000 L727.000,863.000 L727.000,794.000 Z"/>
<path fill-rule="evenodd"  stroke="rgb(255, 255, 255)" stroke-width="10px" stroke-linecap="butt" stroke-linejoin="miter" fill="none"
 d="M798.000,794.000 L853.000,794.000 L853.000,863.000 L798.000,863.000 L798.000,794.000 Z"/>
<path fill-rule="evenodd"  stroke="rgb(255, 255, 255)" stroke-width="10px" stroke-linecap="butt" stroke-linejoin="miter" fill="none"
 d="M727.000,704.000 L782.000,704.000 L782.000,773.000 L727.000,773.000 L727.000,704.000 Z"/>
<path fill-rule="evenodd"  stroke="rgb(255, 255, 255)" stroke-width="10px" stroke-linecap="butt" stroke-linejoin="miter" fill="none"
 d="M798.000,704.000 L853.000,704.000 L853.000,773.000 L798.000,773.000 L798.000,704.000 Z"/>
<path fill-rule="evenodd"  stroke="rgb(255, 255, 255)" stroke-width="10px" stroke-linecap="butt" stroke-linejoin="miter" fill="none"
 d="M727.000,613.000 L782.000,613.000 L782.000,682.000 L727.000,682.000 L727.000,613.000 Z"/>
<path fill-rule="evenodd"  stroke="rgb(255, 255, 255)" stroke-width="10px" stroke-linecap="butt" stroke-linejoin="miter" fill="none"
 d="M798.000,613.000 L853.000,613.000 L853.000,682.000 L798.000,682.000 L798.000,613.000 Z"/>
<path fill-rule="evenodd"  stroke="rgb(255, 255, 255)" stroke-width="15.6px" stroke-linecap="butt" stroke-linejoin="miter" fill="none"
 d="M878.000,1261.000 L868.000,1261.000 L868.000,1153.000 L878.000,1153.000 L878.000,1261.000 Z"/>
<path fill-rule="evenodd"  stroke="rgb(255, 255, 255)" stroke-width="15.6px" stroke-linecap="butt" stroke-linejoin="miter" fill="none"
 d="M1022.000,1262.000 L1012.000,1262.000 L1012.000,1154.000 L1022.000,1154.000 L1022.000,1262.000 Z"/>
<path fill-rule="evenodd"  stroke="rgb(255, 255, 255)" stroke-width="15.6px" stroke-linecap="butt" stroke-linejoin="miter" fill="none"
 d="M948.000,1261.000 L943.000,1261.000 L943.000,1148.000 L948.000,1148.000 L948.000,1261.000 Z"/>
<path fill-rule="evenodd"  stroke="rgb(255, 255, 255)" stroke-width="15.6px" stroke-linecap="butt" stroke-linejoin="miter" fill="none"
 d="M868.000,1154.000 L868.000,1144.000 L1022.000,1144.000 L1022.000,1154.000 L868.000,1154.000 Z"/>
<path fill-rule="evenodd"  stroke="rgb(255, 255, 255)" stroke-width="15.6px" stroke-linecap="butt" stroke-linejoin="miter" fill="none"
 d="M697.000,458.000 L697.000,442.000 L1179.000,442.000 L1179.000,458.000 L697.000,458.000 Z"/>
<path fill-rule="evenodd"  stroke="rgb(255, 255, 255)" stroke-width="15.6px" stroke-linecap="butt" stroke-linejoin="miter" fill="none"
 d="M447.000,1278.000 L447.000,1262.000 L1426.000,1262.000 L1426.000,1278.000 L447.000,1278.000 Z"/>
<path fill-rule="evenodd"  fill="rgb(255, 255, 255)"
 d="M16.000,1453.000 L-0.000,1453.000 L-0.000,-0.000 L16.000,-0.000 L16.000,1453.000 Z"/>
<path fill-rule="evenodd"  fill="rgb(255, 255, 255)"
 d="M1880.000,1453.000 L1864.000,1453.000 L1864.000,-0.000 L1880.000,-0.000 L1880.000,1453.000 Z"/>
<path fill-rule="evenodd"  stroke="rgb(255, 255, 255)" stroke-width="0px" stroke-linecap="butt" stroke-linejoin="miter" fill="rgb(255, 255, 255)"
 d="M0.000,16.000 L0.000,-0.000 L1879.000,-0.000 L1879.000,16.000 L0.000,16.000 Z"/>
<path fill-rule="evenodd"  stroke="rgb(255, 255, 255)" stroke-width="0px" stroke-linecap="butt" stroke-linejoin="miter" fill="rgb(255, 255, 255)"
 d="M0.000,283.000 L0.000,267.000 L1879.000,267.000 L1879.000,283.000 L0.000,283.000 Z"/>
<path fill-rule="evenodd"  stroke="rgb(255, 255, 255)" stroke-width="0px" stroke-linecap="butt" stroke-linejoin="miter" fill="rgb(255, 255, 255)"
 d="M0.000,1453.000 L0.000,1437.000 L1879.000,1437.000 L1879.000,1453.000 L0.000,1453.000 Z"/>
<path fill-rule="evenodd"  stroke="rgb(255, 255, 255)" stroke-width="15.6px" stroke-linecap="butt" stroke-linejoin="miter" fill="none"
 d="M241.000,41.000 C296.228,41.000 341.000,85.772 341.000,141.000 C341.000,196.228 296.228,241.000 241.000,241.000 C185.772,241.000 141.000,196.228 141.000,141.000 C141.000,85.772 185.772,41.000 241.000,41.000 Z"/>
<path fill-rule="evenodd"  stroke="rgb(255, 255, 255)" stroke-width="15.6px" stroke-linecap="butt" stroke-linejoin="miter" fill="none"
 d="M1639.000,41.000 C1694.228,41.000 1739.000,85.772 1739.000,141.000 C1739.000,196.228 1694.228,241.000 1639.000,241.000 C1583.772,241.000 1539.000,196.228 1539.000,141.000 C1539.000,85.772 1583.772,41.000 1639.000,41.000 Z"/>
</svg>